<svg width="1600" height="560" viewBox="0 0 1600 560" fill="none" xmlns="http://www.w3.org/2000/svg" role="img" aria-labelledby="title desc">
  <title id="title">Omkar Mahabdi — AI/ML Engineer and Python Developer</title>
  <desc id="desc">Recruiter-focused profile banner highlighting RAG, LLM evaluation, safe text-to-SQL and measurable engineering outcomes.</desc>
  <defs>
    <linearGradient id="bg" x1="0" y1="0" x2="1600" y2="560" gradientUnits="userSpaceOnUse">
      <stop stop-color="#050914"/>
      <stop offset="0.54" stop-color="#0B1225"/>
      <stop offset="1" stop-color="#071A1B"/>
    </linearGradient>
    <linearGradient id="accent" x1="120" y1="100" x2="810" y2="450" gradientUnits="userSpaceOnUse">
      <stop stop-color="#68A7FF"/>
      <stop offset="0.48" stop-color="#8668FF"/>
      <stop offset="1" stop-color="#46E0B5"/>
    </linearGradient>
    <linearGradient id="line" x1="0" y1="0" x2="1" y2="1">
      <stop stop-color="#6D5DFC" stop-opacity="0.7"/>
      <stop offset="1" stop-color="#45D6AE" stop-opacity="0.08"/>
    </linearGradient>
    <radialGradient id="glow" cx="0" cy="0" r="1" gradientTransform="translate(1320 80) rotate(135) scale(620 420)" gradientUnits="userSpaceOnUse">
      <stop stop-color="#20C997" stop-opacity="0.18"/>
      <stop offset="1" stop-color="#20C997" stop-opacity="0"/>
    </radialGradient>
    <filter id="shadow" x="-20%" y="-20%" width="140%" height="140%">
      <feDropShadow dx="0" dy="16" stdDeviation="24" flood-color="#000814" flood-opacity="0.5"/>
    </filter>
    <pattern id="grid" width="48" height="48" patternUnits="userSpaceOnUse">
      <path d="M48 0H0V48" stroke="#A9B7D0" stroke-opacity="0.045"/>
    </pattern>
  </defs>

  <rect width="1600" height="560" rx="34" fill="url(#bg)"/>
  <rect width="1600" height="560" rx="34" fill="url(#grid)"/>
  <rect width="1600" height="560" rx="34" fill="url(#glow)"/>
  <rect x="1.5" y="1.5" width="1597" height="557" rx="32.5" stroke="#7686A5" stroke-opacity="0.35" stroke-width="3"/>

  <circle cx="92" cy="84" r="32" fill="#6D5DFC"/>
  <text x="92" y="94" text-anchor="middle" fill="white" font-family="Inter, Segoe UI, Arial, sans-serif" font-size="25" font-weight="800">OM</text>
  <circle cx="143" cy="84" r="7" fill="#42D6A4"/>
  <circle cx="143" cy="84" r="12" fill="none" stroke="#42D6A4" stroke-width="2" opacity="0">
    <animate attributeName="r" values="7;18;7" dur="2.4s" repeatCount="indefinite"/>
    <animate attributeName="opacity" values="0.8;0;0" dur="2.4s" repeatCount="indefinite"/>
  </circle>
  <text x="166" y="92" fill="#B9C6DA" font-family="Inter, Segoe UI, Arial, sans-serif" font-size="24" font-weight="600" letter-spacing="2.5">AVAILABLE FOR HIGH-IMPACT AI WORK</text>

  <text x="74" y="188" fill="#F5F7FF" font-family="Inter, Segoe UI, Arial, sans-serif" font-size="68" font-weight="800" letter-spacing="-2.4">Omkar Mahabdi</text>
  <text x="74" y="248" fill="url(#accent)" font-family="Inter, Segoe UI, Arial, sans-serif" font-size="42" font-weight="750" letter-spacing="-1">AI/ML Engineer · Python Developer</text>
  <text x="76" y="301" fill="#AAB8CE" font-family="Inter, Segoe UI, Arial, sans-serif" font-size="26" font-weight="450">Building production RAG, LLM evaluation and safe text-to-SQL systems.</text>

  <g transform="translate(76 348)">
    <rect width="220" height="102" rx="18" fill="#111B31" stroke="#364668"/>
    <text x="22" y="42" fill="#F6F8FF" font-family="Inter, Segoe UI, Arial, sans-serif" font-size="31" font-weight="780">&lt;500 ms</text>
    <text x="22" y="72" fill="#91A1B9" font-family="Inter, Segoe UI, Arial, sans-serif" font-size="18">semantic retrieval</text>
  </g>
  <g transform="translate(314 348)">
    <rect width="220" height="102" rx="18" fill="#111B31" stroke="#364668"/>
    <text x="22" y="42" fill="#F6F8FF" font-family="Inter, Segoe UI, Arial, sans-serif" font-size="31" font-weight="780">92%+</text>
    <text x="22" y="72" fill="#91A1B9" font-family="Inter, Segoe UI, Arial, sans-serif" font-size="18">retrieval accuracy</text>
  </g>
  <g transform="translate(552 348)">
    <rect width="244" height="102" rx="18" fill="#111B31" stroke="#364668"/>
    <text x="22" y="42" fill="#F6F8FF" font-family="Inter, Segoe UI, Arial, sans-serif" font-size="31" font-weight="780">500+</text>
    <text x="22" y="72" fill="#91A1B9" font-family="Inter, Segoe UI, Arial, sans-serif" font-size="18">adversarial prompts</text>
  </g>

  <path d="M835 92V468" stroke="url(#line)" stroke-width="2"/>

  <g filter="url(#shadow)">
    <rect x="884" y="84" width="642" height="392" rx="26" fill="#0D1728" stroke="#31415D"/>
    <text x="924" y="133" fill="#8EA0BD" font-family="Inter, Segoe UI, Arial, sans-serif" font-size="19" font-weight="700" letter-spacing="3">LIVE PROJECTS · RECRUITER QUICK SCAN</text>

    <g transform="translate(924 166)">
      <rect width="562" height="78" rx="16" fill="#121F36" stroke="#34486A"/>
      <circle cx="35" cy="39" r="18" fill="#6D5DFC" fill-opacity="0.22"/>
      <path d="M27 39h16M35 31v16" stroke="#9B8DFF" stroke-width="3" stroke-linecap="round"/>
      <text x="70" y="34" fill="#F5F7FF" font-family="Inter, Segoe UI, Arial, sans-serif" font-size="23" font-weight="750">AI Portfolio</text>
      <text x="70" y="59" fill="#94A5BD" font-family="Inter, Segoe UI, Arial, sans-serif" font-size="17">Grounded recruiter assistant · RAG · streaming</text>
      <circle cx="531" cy="39" r="7" fill="#42D6A4">
        <animate attributeName="opacity" values="0.35;1;0.35" dur="1.8s" begin="0s" repeatCount="indefinite"/>
      </circle>
    </g>

    <g transform="translate(924 260)">
      <rect width="562" height="78" rx="16" fill="#121F36" stroke="#34486A"/>
      <circle cx="35" cy="39" r="18" fill="#3B82F6" fill-opacity="0.22"/>
      <path d="M27 40l6 6 11-14" stroke="#70A8FF" stroke-width="3" stroke-linecap="round" stroke-linejoin="round"/>
      <text x="70" y="34" fill="#F5F7FF" font-family="Inter, Segoe UI, Arial, sans-serif" font-size="23" font-weight="750">Reliability Observatory</text>
      <text x="70" y="59" fill="#94A5BD" font-family="Inter, Segoe UI, Arial, sans-serif" font-size="17">LLM evaluation · DeepEval · red teaming</text>
      <circle cx="531" cy="39" r="7" fill="#42D6A4">
        <animate attributeName="opacity" values="0.35;1;0.35" dur="1.8s" begin="0.3s" repeatCount="indefinite"/>
      </circle>
    </g>

    <g transform="translate(924 354)">
      <rect width="562" height="78" rx="16" fill="#121F36" stroke="#34486A"/>
      <circle cx="35" cy="39" r="18" fill="#10B981" fill-opacity="0.2"/>
      <path d="M27 34c0-5 16-5 16 0v11c0 5-16 5-16 0V34Zm0 0c0 5 16 5 16 0M27 40c0 5 16 5 16 0" stroke="#50E1B7" stroke-width="2.4"/>
      <text x="70" y="34" fill="#F5F7FF" font-family="Inter, Segoe UI, Arial, sans-serif" font-size="23" font-weight="750">SQL Pilot</text>
      <text x="70" y="59" fill="#94A5BD" font-family="Inter, Segoe UI, Arial, sans-serif" font-size="17">Schema-aware · AST validated · read only</text>
      <circle cx="531" cy="39" r="7" fill="#42D6A4">
        <animate attributeName="opacity" values="0.35;1;0.35" dur="1.8s" begin="0.6s" repeatCount="indefinite"/>
      </circle>
    </g>

    <rect x="898" y="92" width="2" height="374" rx="1" fill="#42D6A4" opacity="0.5">
      <animate attributeName="x" values="898;1510;898" dur="9s" repeatCount="indefinite"/>
      <animate attributeName="opacity" values="0;0.55;0" dur="9s" repeatCount="indefinite"/>
    </rect>
  </g>

  <text x="76" y="512" fill="#72839F" font-family="Inter, Segoe UI, Arial, sans-serif" font-size="18">Pune, India</text>
  <circle cx="194" cy="506" r="3" fill="#566784"/>
  <text x="211" y="512" fill="#72839F" font-family="Inter, Segoe UI, Arial, sans-serif" font-size="18">Python · FastAPI · FAISS · LangChain · SQL · React</text>
</svg>
